<svg version="1.1" id="Layer_1" xmlns="http://www.w3.org/2000/svg" xmlns:xlink="http://www.w3.org/1999/xlink" x="0px" y="0px"
	 width="100%" viewBox="0 0 529 127" enable-background="new 0 0 529 127" xml:space="preserve">
<path fill="#F9F9FA" opacity="1.000000" stroke="none" 
	d="
M354.000000,128.000000 
	C236.000000,128.000000 118.500000,128.000000 1.000000,128.000000 
	C1.000000,85.666664 1.000000,43.333332 1.000000,1.000000 
	C177.333328,1.000000 353.666656,1.000000 530.000000,1.000000 
	C530.000000,43.333332 530.000000,85.666664 530.000000,128.000000 
	C471.500000,128.000000 413.000000,128.000000 354.000000,128.000000 
M119.500000,112.121780 
	C84.425224,112.121780 49.350445,112.121780 14.342031,112.121780 
	C14.342031,114.846901 14.342031,116.754082 14.342031,118.645126 
	C179.377457,118.645126 344.063599,118.645126 508.648132,118.645126 
	C508.648132,116.352669 508.648132,114.444939 508.648132,112.121933 
	C379.028351,112.121933 249.764175,112.121933 119.500000,112.121780 
M333.987671,68.331825 
	C334.384796,70.439781 334.781921,72.547737 335.222137,74.884521 
	C329.586761,74.884521 324.797058,74.963272 320.011536,74.855721 
	C317.020172,74.788490 315.655701,73.263618 315.752075,70.064606 
	C315.877075,65.915787 315.478638,61.753941 315.408539,57.595963 
	C315.228851,46.943485 314.744659,36.272987 315.245911,25.650438 
	C315.354584,23.347494 318.760651,19.883854 321.213257,19.290215 
	C325.879089,18.160860 324.953735,22.500010 325.099304,25.319561 
	C325.351288,30.201500 325.558685,35.085743 325.805847,40.423088 
	C331.632751,39.882797 336.537689,39.427994 341.954163,38.925758 
	C341.612274,32.375080 341.851837,26.172300 340.770752,20.208935 
	C340.098083,16.498547 337.980530,12.506490 333.154510,12.070885 
	C327.690338,11.577681 322.196930,10.953524 316.728027,11.050600 
	C298.570343,11.372910 299.589020,12.379252 299.374756,27.937780 
	C299.138763,45.074421 299.722748,62.221722 299.897614,79.364906 
	C300.000763,89.476181 303.850677,93.800743 313.881256,93.911591 
	C321.805786,93.999168 329.736176,93.299126 337.667816,93.138359 
	C340.585052,93.079239 341.822784,92.114029 341.810638,89.055267 
	C341.760590,76.402489 341.809601,63.747936 341.997192,51.096626 
	C342.040833,48.152927 340.618622,47.091240 338.142853,47.220821 
	C332.198334,47.531967 326.264984,48.057652 319.853027,48.531834 
	C319.336243,55.166451 318.839539,61.543564 318.321747,68.191154 
	C323.543884,68.191154 328.319244,68.191154 333.987671,68.331825 
M409.983459,68.609283 
	C410.953979,75.693832 411.765778,82.806931 413.030518,89.838562 
	C413.279785,91.224564 415.208344,93.251137 416.476624,93.339264 
	C420.739746,93.635468 425.053680,93.096893 429.349701,93.060883 
	C432.116577,93.037682 432.994232,91.899841 433.062408,89.130974 
	C433.579102,68.152161 434.321533,47.178959 434.853607,26.200459 
	C435.238586,11.022864 435.142700,11.016386 419.691010,12.204478 
	C419.237305,12.239366 418.806396,12.570692 418.084229,12.886527 
	C419.135895,30.228718 420.189606,47.605000 421.243347,64.981277 
	C420.798279,65.024269 420.353241,65.067253 419.908173,65.110245 
	C419.584869,64.052017 419.183228,63.010735 418.949982,61.933018 
	C415.644348,46.658466 412.402069,31.369957 409.004486,16.116001 
	C408.697815,14.739081 407.524750,12.582354 406.583801,12.488159 
	C402.544922,12.083846 398.442383,12.315645 393.667236,12.315645 
	C393.667236,39.736763 393.667236,66.644707 393.667236,94.125771 
	C397.486176,93.763054 401.027069,93.426750 404.919678,93.057045 
	C404.919678,75.632973 404.919678,58.792915 404.919678,41.952854 
	C405.329559,41.911980 405.739441,41.871105 406.149323,41.830231 
	C407.401886,50.460583 408.654449,59.090939 409.983459,68.609283 
M105.213348,71.508728 
	C105.341019,66.691025 105.614754,61.871906 105.567970,57.055897 
	C105.445488,44.446808 105.200661,31.838745 104.963905,19.231037 
	C104.905365,16.113842 103.058022,14.660684 100.154366,13.794778 
	C92.221939,11.429225 84.206894,11.243073 76.049156,12.057016 
	C67.837631,12.876327 64.551437,15.605904 64.371819,23.968866 
	C63.943298,43.920216 63.886337,63.881363 63.884888,83.838570 
	C63.884594,87.910309 66.013947,92.097351 70.055405,92.505714 
	C79.427498,93.452690 88.913666,93.504608 98.351089,93.454094 
	C102.041946,93.434349 104.411537,90.782021 104.664154,86.945030 
	C104.980522,82.139809 105.038696,77.317574 105.213348,71.508728 
M182.001236,59.911057 
	C182.117569,58.699406 182.233902,57.487755 182.356445,56.211479 
	C187.924332,57.034924 190.049652,59.851414 190.112335,65.110931 
	C190.222626,74.366631 190.898544,83.615578 191.342056,92.960716 
	C194.305176,93.259178 196.954605,93.466843 199.587250,93.805244 
	C203.430664,94.299278 205.444153,93.222847 205.439026,88.800072 
	C205.428818,79.988701 206.329010,71.154541 205.896118,62.376999 
	C205.741119,59.233700 202.936768,56.157440 201.110840,53.192730 
	C200.419281,52.069870 199.077316,51.347588 196.975494,49.528496 
	C204.491333,49.263538 205.400955,44.869328 205.537323,39.823586 
	C205.649643,35.668125 205.915222,31.514965 206.194305,27.366264 
	C206.635071,20.814199 202.734482,14.028316 196.411118,13.269273 
	C186.128662,12.034988 175.693573,12.072156 165.316528,11.572378 
	C165.316528,39.398911 165.316528,66.086411 165.316528,92.670166 
	C171.120102,92.670166 176.507721,92.670166 182.001282,92.670166 
	C182.001282,81.773949 182.001282,71.297005 182.001236,59.911057 
M134.125946,32.660561 
	C134.338409,29.840178 134.701630,27.021702 134.737366,24.199081 
	C134.895950,11.676408 137.378128,12.273714 123.636604,11.866906 
	C114.974655,11.610476 114.385353,12.102443 114.314545,21.037722 
	C114.173294,38.861927 113.710716,56.698269 114.238678,74.504166 
	C114.397316,79.854385 117.331322,85.142433 119.165718,90.399002 
	C119.412529,91.106239 120.620544,91.799057 121.468086,91.923843 
	C127.223518,92.771248 133.224869,94.833099 138.728195,93.935722 
	C152.113998,91.753052 156.275894,92.466454 156.133194,76.875778 
	C155.951767,57.053230 156.011017,37.228474 155.967499,17.404667 
	C155.963654,15.652131 155.966995,13.899578 155.966995,12.143940 
	C152.039215,12.143940 148.930740,12.143940 145.404800,12.143940 
	C145.307053,14.183707 145.146835,15.971820 145.147049,17.759912 
	C145.149551,38.415684 145.105377,59.072018 145.268951,79.726654 
	C145.295135,83.033653 144.320740,84.554169 141.002029,84.990921 
	C136.151581,85.629265 132.766342,82.648308 132.888443,77.069733 
	C133.205414,62.586704 133.684616,48.107227 134.125946,32.660561 
M14.783772,31.170698 
	C14.872842,48.288292 14.739123,65.411644 15.181001,82.520126 
	C15.321285,87.951576 21.250660,94.182304 25.216043,94.214630 
	C33.038227,94.278412 40.869186,94.251671 48.683838,93.942154 
	C54.973568,93.693054 56.945488,91.357597 57.035980,85.034836 
	C57.069336,82.704430 57.132236,80.374191 57.140835,78.043732 
	C57.157658,73.486099 57.145775,68.928360 57.145775,64.172577 
	C51.800034,64.172577 46.712029,64.172577 40.953629,64.172577 
	C40.953629,71.812050 40.953629,79.179665 40.953629,86.931404 
	C37.985897,86.677170 35.720604,86.483109 33.360580,86.280937 
	C33.187679,84.958076 32.993740,83.993904 32.945023,83.022453 
	C32.345173,71.062042 31.619253,59.105148 31.247343,47.137356 
	C31.072989,41.526794 31.430180,35.880302 31.927763,30.283995 
	C32.032227,29.109053 33.629948,27.446775 34.847412,27.104727 
	C38.833797,25.984747 39.977238,28.152658 40.113831,31.939386 
	C40.490284,42.375656 41.148605,42.700485 51.526299,42.021706 
	C55.552536,41.758358 57.138748,40.138802 56.990406,36.143501 
	C56.774326,30.323637 56.692265,24.485567 56.907120,18.668337 
	C57.019867,15.615754 55.742290,14.266171 53.109230,13.159841 
	C43.970173,9.319884 34.623833,11.292334 25.618753,12.807163 
	C15.454740,14.516949 15.579130,15.261032 15.056139,25.754528 
	C14.981561,27.250891 14.918892,28.747845 14.783772,31.170698 
M235.356781,75.607040 
	C232.245621,75.349152 229.134476,75.091263 225.592499,74.797653 
	C225.393250,70.794289 225.207245,67.056908 225.004517,62.983814 
	C220.938507,62.571266 217.227203,62.194706 212.051147,61.669533 
	C212.051147,68.384117 211.793884,74.330826 212.114838,80.246162 
	C212.537033,88.027397 215.818832,91.725906 223.390503,92.951080 
	C227.638275,93.638420 232.227524,94.505440 236.264603,93.570869 
	C240.428055,92.607056 244.108170,89.555351 247.999741,87.417122 
	C248.535385,74.341873 249.071030,61.266628 249.625320,47.736515 
	C241.465500,46.943325 234.391724,46.255711 226.735992,45.511520 
	C226.450089,41.885571 226.087845,38.287014 225.898529,34.679386 
	C225.524994,27.561478 226.098526,27.107882 233.715088,28.352385 
	C233.892822,31.351488 234.074768,34.421249 234.276779,37.829895 
	C239.202515,37.829895 243.765839,37.829895 248.942429,37.829895 
	C248.942429,31.332977 249.387955,25.002602 248.699814,18.797958 
	C248.460297,16.638277 245.798584,13.902752 243.589096,12.955090 
	C234.931808,9.241940 225.885620,11.434859 217.032303,12.476653 
	C215.562393,12.649621 213.248260,15.315574 213.252289,16.824366 
	C213.285767,29.417555 213.770813,42.009541 214.126160,54.837940 
	C221.713974,55.394455 228.763870,55.911514 235.778336,56.425976 
	C235.896561,57.557186 236.030991,58.214924 236.023514,58.871044 
	C235.962677,64.196815 235.875275,69.522293 235.356781,75.607040 
M481.551392,12.832329 
	C471.133881,12.689494 471.063721,12.688484 470.912537,23.188126 
	C470.605835,44.490177 470.381409,65.793419 470.128204,87.096230 
	C470.107178,88.865944 470.125458,90.636108 470.125458,92.832062 
	C483.368103,92.832062 495.919830,92.832062 508.738068,92.832062 
	C508.738068,87.417862 508.738068,82.169487 508.738068,76.060059 
	C501.473907,76.060059 494.399048,76.060059 486.730377,76.060059 
	C486.450562,70.012550 486.209076,64.794090 485.938934,58.955688 
	C491.790222,58.955688 497.040039,58.955688 502.963074,58.955688 
	C502.596283,55.095833 502.290619,51.879517 501.926636,48.049171 
	C495.942627,48.049171 490.234222,48.049171 484.079498,48.049171 
	C484.450562,43.326279 484.768555,39.279007 485.129791,34.681190 
	C492.982300,34.681190 500.384979,34.681190 507.511230,34.681190 
	C507.511230,27.180624 507.511230,20.284340 507.511230,12.846605 
	C498.829010,12.846605 490.682159,12.846605 481.551392,12.832329 
M292.978760,27.429974 
	C292.935486,24.432760 292.671661,21.418402 292.903015,18.442533 
	C293.214355,14.437318 291.918915,12.853373 287.636047,12.967451 
	C279.152435,13.193421 270.633453,13.188280 262.169800,12.644860 
	C257.318909,12.333402 256.100677,14.316792 256.016479,18.554453 
	C255.775192,30.700214 255.214386,42.840435 255.042953,54.986557 
	C254.867401,67.425285 255.004074,79.868423 255.004074,92.782700 
	C268.225372,92.782700 280.782043,92.782700 293.653992,92.782700 
	C293.653992,87.523582 293.653992,82.285103 293.653992,75.803505 
	C287.396454,75.803505 281.283905,75.960808 275.191528,75.680405 
	C273.856720,75.618965 271.564270,74.090012 271.474396,73.080116 
	C271.069214,68.527184 271.297577,63.917866 271.297577,58.764977 
	C276.961884,58.764977 282.210480,58.764977 287.890259,58.764977 
	C287.498352,54.931473 287.169189,51.711864 286.796265,48.064369 
	C280.791443,48.064369 275.214203,48.064369 269.040924,48.064369 
	C269.348145,43.491535 269.620544,39.436291 269.929596,34.835907 
	C277.736084,34.835907 285.142548,34.835907 292.995483,34.835907 
	C292.995483,32.311462 292.995483,30.355087 292.978760,27.429974 
M349.847595,80.488319 
	C349.847595,84.439461 349.847595,88.390602 349.847595,92.791229 
	C362.973328,92.791229 375.480377,92.791229 388.065948,92.791229 
	C388.065948,87.213112 388.065948,82.091331 388.065948,75.816605 
	C381.905396,75.816605 375.954834,75.971268 370.023773,75.700302 
	C368.659271,75.637962 366.299042,74.208954 366.213867,73.247841 
	C365.809265,68.683731 366.032990,64.063934 366.032990,58.865829 
	C371.493530,58.865829 376.572784,58.865829 381.622528,58.865829 
	C381.622528,55.023624 381.622528,51.801064 381.622528,48.124107 
	C375.615448,48.124107 370.035583,48.124107 364.312317,48.124107 
	C364.312317,43.580940 364.312317,39.514687 364.312317,34.842331 
	C372.203400,34.842331 379.764465,34.842331 387.858185,34.842331 
	C387.520050,27.331442 387.210480,20.454523 386.883881,13.200087 
	C374.752533,13.200087 363.070343,13.200087 350.240143,13.200087 
	C350.106415,35.596256 349.975372,57.543732 349.847595,80.488319 
M443.296783,47.714760 
	C443.296783,62.625061 443.296783,77.535362 443.296783,92.587631 
	C450.042572,92.587631 455.420624,92.587631 461.158752,92.587631 
	C461.158752,73.057823 461.161804,53.940128 461.145599,34.822453 
	C461.145050,34.183685 460.949707,33.545086 460.775635,32.481308 
	C455.184143,32.481308 449.662384,32.481308 444.097961,32.481308 
	C443.825256,37.466434 443.570892,42.116592 443.296783,47.714760 
M461.556671,25.047518 
	C461.660370,21.575657 461.998657,18.086674 461.747131,14.640737 
	C461.652496,13.344247 460.418457,11.339237 459.316681,11.028058 
	C445.350708,7.083575 441.306030,10.746613 443.931458,24.711720 
	C444.015015,25.156324 444.362701,25.551277 444.474670,25.759752 
	C450.113983,25.759752 455.545959,25.759752 461.556671,25.047518 
z"/>
<path fill="#8B61F9" opacity="1.000000" stroke="none" 
	d="
M120.000000,112.121857 
	C249.764175,112.121933 379.028351,112.121933 508.648132,112.121933 
	C508.648132,114.444939 508.648132,116.352669 508.648132,118.645126 
	C344.063599,118.645126 179.377457,118.645126 14.342031,118.645126 
	C14.342031,116.754082 14.342031,114.846901 14.342031,112.121780 
	C49.350445,112.121780 84.425224,112.121780 120.000000,112.121857 
z"/>
<path fill="#895EF9" opacity="1.000000" stroke="none" 
	d="
M333.541138,68.261490 
	C328.319244,68.191154 323.543884,68.191154 318.321747,68.191154 
	C318.839539,61.543564 319.336243,55.166451 319.853027,48.531834 
	C326.264984,48.057652 332.198334,47.531967 338.142853,47.220821 
	C340.618622,47.091240 342.040833,48.152927 341.997192,51.096626 
	C341.809601,63.747936 341.760590,76.402489 341.810638,89.055267 
	C341.822784,92.114029 340.585052,93.079239 337.667816,93.138359 
	C329.736176,93.299126 321.805786,93.999168 313.881256,93.911591 
	C303.850677,93.800743 300.000763,89.476181 299.897614,79.364906 
	C299.722748,62.221722 299.138763,45.074421 299.374756,27.937780 
	C299.589020,12.379252 298.570343,11.372910 316.728027,11.050600 
	C322.196930,10.953524 327.690338,11.577681 333.154510,12.070885 
	C337.980530,12.506490 340.098083,16.498547 340.770752,20.208935 
	C341.851837,26.172300 341.612274,32.375080 341.954163,38.925758 
	C336.537689,39.427994 331.632751,39.882797 325.805847,40.423088 
	C325.558685,35.085743 325.351288,30.201500 325.099304,25.319561 
	C324.953735,22.500010 325.879089,18.160860 321.213257,19.290215 
	C318.760651,19.883854 315.354584,23.347494 315.245911,25.650438 
	C314.744659,36.272987 315.228851,46.943485 315.408539,57.595963 
	C315.478638,61.753941 315.877075,65.915787 315.752075,70.064606 
	C315.655701,73.263618 317.020172,74.788490 320.011536,74.855721 
	C324.797058,74.963272 329.586761,74.884521 335.222137,74.884521 
	C334.781921,72.547737 334.384796,70.439781 333.541138,68.261490 
z"/>
<path fill="#8A5FF9" opacity="1.000000" stroke="none" 
	d="
M409.945251,68.165283 
	C408.654449,59.090939 407.401886,50.460583 406.149323,41.830231 
	C405.739441,41.871105 405.329559,41.911980 404.919678,41.952854 
	C404.919678,58.792915 404.919678,75.632973 404.919678,93.057045 
	C401.027069,93.426750 397.486176,93.763054 393.667236,94.125771 
	C393.667236,66.644707 393.667236,39.736763 393.667236,12.315645 
	C398.442383,12.315645 402.544922,12.083846 406.583801,12.488159 
	C407.524750,12.582354 408.697815,14.739081 409.004486,16.116001 
	C412.402069,31.369957 415.644348,46.658466 418.949982,61.933018 
	C419.183228,63.010735 419.584869,64.052017 419.908173,65.110245 
	C420.353241,65.067253 420.798279,65.024269 421.243347,64.981277 
	C420.189606,47.605000 419.135895,30.228718 418.084229,12.886527 
	C418.806396,12.570692 419.237305,12.239366 419.691010,12.204478 
	C435.142700,11.016386 435.238586,11.022864 434.853607,26.200459 
	C434.321533,47.178959 433.579102,68.152161 433.062408,89.130974 
	C432.994232,91.899841 432.116577,93.037682 429.349701,93.060883 
	C425.053680,93.096893 420.739746,93.635468 416.476624,93.339264 
	C415.208344,93.251137 413.279785,91.224564 413.030518,89.838562 
	C411.765778,82.806931 410.953979,75.693832 409.945251,68.165283 
z"/>
<path fill="#895DF9" opacity="1.000000" stroke="none" 
	d="
M105.210831,72.005707 
	C105.038696,77.317574 104.980522,82.139809 104.664154,86.945030 
	C104.411537,90.782021 102.041946,93.434349 98.351089,93.454094 
	C88.913666,93.504608 79.427498,93.452690 70.055405,92.505714 
	C66.013947,92.097351 63.884594,87.910309 63.884888,83.838570 
	C63.886337,63.881363 63.943298,43.920216 64.371819,23.968866 
	C64.551437,15.605904 67.837631,12.876327 76.049156,12.057016 
	C84.206894,11.243073 92.221939,11.429225 100.154366,13.794778 
	C103.058022,14.660684 104.905365,16.113842 104.963905,19.231037 
	C105.200661,31.838745 105.445488,44.446808 105.567970,57.055897 
	C105.614754,61.871906 105.341019,66.691025 105.210831,72.005707 
M82.575722,33.936649 
	C77.986069,33.135101 76.882019,35.498127 76.947510,39.600410 
	C77.127625,50.881943 77.049530,62.167469 77.108032,73.451241 
	C77.115417,74.874641 77.328796,76.296982 77.475723,78.069618 
	C80.412209,78.069618 82.894089,78.160988 85.366417,78.046318 
	C88.407951,77.905266 90.044456,76.684853 90.079712,73.143547 
	C90.183693,62.698456 90.721146,52.258514 90.980942,41.813869 
	C91.173492,34.072456 91.098328,34.070587 82.575722,33.936649 
z"/>
<path fill="#895DF9" opacity="1.000000" stroke="none" 
	d="
M182.001251,60.365555 
	C182.001282,71.297005 182.001282,81.773949 182.001282,92.670166 
	C176.507721,92.670166 171.120102,92.670166 165.316528,92.670166 
	C165.316528,66.086411 165.316528,39.398911 165.316528,11.572378 
	C175.693573,12.072156 186.128662,12.034988 196.411118,13.269273 
	C202.734482,14.028316 206.635071,20.814199 206.194305,27.366264 
	C205.915222,31.514965 205.649643,35.668125 205.537323,39.823586 
	C205.400955,44.869328 204.491333,49.263538 196.975494,49.528496 
	C199.077316,51.347588 200.419281,52.069870 201.110840,53.192730 
	C202.936768,56.157440 205.741119,59.233700 205.896118,62.376999 
	C206.329010,71.154541 205.428818,79.988701 205.439026,88.800072 
	C205.444153,93.222847 203.430664,94.299278 199.587250,93.805244 
	C196.954605,93.466843 194.305176,93.259178 191.342056,92.960716 
	C190.898544,83.615578 190.222626,74.366631 190.112335,65.110931 
	C190.049652,59.851414 187.924332,57.034924 182.356445,56.211479 
	C182.233902,57.487755 182.117569,58.699406 182.001251,60.365555 
M184.878281,44.481312 
	C187.708832,40.582752 187.945770,26.212742 184.662811,23.291967 
	C183.088058,21.890944 180.156006,21.669659 177.840973,21.676760 
	C177.220688,21.678665 176.131012,24.467093 176.080170,26.003544 
	C175.905319,31.288136 176.238846,36.588772 176.092499,41.875374 
	C176.004013,45.071190 177.368652,46.052876 180.269913,45.580399 
	C181.573746,45.368065 182.873428,45.130157 184.878281,44.481312 
z"/>
<path fill="#895EF9" opacity="1.000000" stroke="none" 
	d="
M134.112503,33.143448 
	C133.684616,48.107227 133.205414,62.586704 132.888443,77.069733 
	C132.766342,82.648308 136.151581,85.629265 141.002029,84.990921 
	C144.320740,84.554169 145.295135,83.033653 145.268951,79.726654 
	C145.105377,59.072018 145.149551,38.415684 145.147049,17.759912 
	C145.146835,15.971820 145.307053,14.183707 145.404800,12.143940 
	C148.930740,12.143940 152.039215,12.143940 155.966995,12.143940 
	C155.966995,13.899578 155.963654,15.652131 155.967499,17.404667 
	C156.011017,37.228474 155.951767,57.053230 156.133194,76.875778 
	C156.275894,92.466454 152.113998,91.753052 138.728195,93.935722 
	C133.224869,94.833099 127.223518,92.771248 121.468086,91.923843 
	C120.620544,91.799057 119.412529,91.106239 119.165718,90.399002 
	C117.331322,85.142433 114.397316,79.854385 114.238678,74.504166 
	C113.710716,56.698269 114.173294,38.861927 114.314545,21.037722 
	C114.385353,12.102443 114.974655,11.610476 123.636604,11.866906 
	C137.378128,12.273714 134.895950,11.676408 134.737366,24.199081 
	C134.701630,27.021702 134.338409,29.840178 134.112503,33.143448 
z"/>
<path fill="#895EF9" opacity="1.000000" stroke="none" 
	d="
M14.817242,30.707611 
	C14.918892,28.747845 14.981561,27.250891 15.056139,25.754528 
	C15.579130,15.261032 15.454740,14.516949 25.618753,12.807163 
	C34.623833,11.292334 43.970173,9.319884 53.109230,13.159841 
	C55.742290,14.266171 57.019867,15.615754 56.907120,18.668337 
	C56.692265,24.485567 56.774326,30.323637 56.990406,36.143501 
	C57.138748,40.138802 55.552536,41.758358 51.526299,42.021706 
	C41.148605,42.700485 40.490284,42.375656 40.113831,31.939386 
	C39.977238,28.152658 38.833797,25.984747 34.847412,27.104727 
	C33.629948,27.446775 32.032227,29.109053 31.927763,30.283995 
	C31.430180,35.880302 31.072989,41.526794 31.247343,47.137356 
	C31.619253,59.105148 32.345173,71.062042 32.945023,83.022453 
	C32.993740,83.993904 33.187679,84.958076 33.360580,86.280937 
	C35.720604,86.483109 37.985897,86.677170 40.953629,86.931404 
	C40.953629,79.179665 40.953629,71.812050 40.953629,64.172577 
	C46.712029,64.172577 51.800034,64.172577 57.145775,64.172577 
	C57.145775,68.928360 57.157658,73.486099 57.140835,78.043732 
	C57.132236,80.374191 57.069336,82.704430 57.035980,85.034836 
	C56.945488,91.357597 54.973568,93.693054 48.683838,93.942154 
	C40.869186,94.251671 33.038227,94.278412 25.216043,94.214630 
	C21.250660,94.182304 15.321285,87.951576 15.181001,82.520126 
	C14.739123,65.411644 14.872842,48.288292 14.817242,30.707611 
z"/>
<path fill="#895EF9" opacity="1.000000" stroke="none" 
	d="
M235.576370,75.227448 
	C235.875275,69.522293 235.962677,64.196815 236.023514,58.871044 
	C236.030991,58.214924 235.896561,57.557186 235.778336,56.425976 
	C228.763870,55.911514 221.713974,55.394455 214.126160,54.837940 
	C213.770813,42.009541 213.285767,29.417555 213.252289,16.824366 
	C213.248260,15.315574 215.562393,12.649621 217.032303,12.476653 
	C225.885620,11.434859 234.931808,9.241940 243.589096,12.955090 
	C245.798584,13.902752 248.460297,16.638277 248.699814,18.797958 
	C249.387955,25.002602 248.942429,31.332977 248.942429,37.829895 
	C243.765839,37.829895 239.202515,37.829895 234.276779,37.829895 
	C234.074768,34.421249 233.892822,31.351488 233.715088,28.352385 
	C226.098526,27.107882 225.524994,27.561478 225.898529,34.679386 
	C226.087845,38.287014 226.450089,41.885571 226.735992,45.511520 
	C234.391724,46.255711 241.465500,46.943325 249.625320,47.736515 
	C249.071030,61.266628 248.535385,74.341873 247.999741,87.417122 
	C244.108170,89.555351 240.428055,92.607056 236.264603,93.570869 
	C232.227524,94.505440 227.638275,93.638420 223.390503,92.951080 
	C215.818832,91.725906 212.537033,88.027397 212.114838,80.246162 
	C211.793884,74.330826 212.051147,68.384117 212.051147,61.669533 
	C217.227203,62.194706 220.938507,62.571266 225.004517,62.983814 
	C225.207245,67.056908 225.393250,70.794289 225.592499,74.797653 
	C229.134476,75.091263 232.245621,75.349152 235.576370,75.227448 
z"/>
<path fill="#895EF9" opacity="1.000000" stroke="none" 
	d="
M482.043335,12.839467 
	C490.682159,12.846605 498.829010,12.846605 507.511230,12.846605 
	C507.511230,20.284340 507.511230,27.180624 507.511230,34.681190 
	C500.384979,34.681190 492.982300,34.681190 485.129791,34.681190 
	C484.768555,39.279007 484.450562,43.326279 484.079498,48.049171 
	C490.234222,48.049171 495.942627,48.049171 501.926636,48.049171 
	C502.290619,51.879517 502.596283,55.095833 502.963074,58.955688 
	C497.040039,58.955688 491.790222,58.955688 485.938934,58.955688 
	C486.209076,64.794090 486.450562,70.012550 486.730377,76.060059 
	C494.399048,76.060059 501.473907,76.060059 508.738068,76.060059 
	C508.738068,82.169487 508.738068,87.417862 508.738068,92.832062 
	C495.919830,92.832062 483.368103,92.832062 470.125458,92.832062 
	C470.125458,90.636108 470.107178,88.865944 470.128204,87.096230 
	C470.381409,65.793419 470.605835,44.490177 470.912537,23.188126 
	C471.063721,12.688484 471.133881,12.689494 482.043335,12.839467 
z"/>
<path fill="#895EF9" opacity="1.000000" stroke="none" 
	d="
M292.987122,27.914345 
	C292.995483,30.355087 292.995483,32.311462 292.995483,34.835907 
	C285.142548,34.835907 277.736084,34.835907 269.929596,34.835907 
	C269.620544,39.436291 269.348145,43.491535 269.040924,48.064369 
	C275.214203,48.064369 280.791443,48.064369 286.796265,48.064369 
	C287.169189,51.711864 287.498352,54.931473 287.890259,58.764977 
	C282.210480,58.764977 276.961884,58.764977 271.297577,58.764977 
	C271.297577,63.917866 271.069214,68.527184 271.474396,73.080116 
	C271.564270,74.090012 273.856720,75.618965 275.191528,75.680405 
	C281.283905,75.960808 287.396454,75.803505 293.653992,75.803505 
	C293.653992,82.285103 293.653992,87.523582 293.653992,92.782700 
	C280.782043,92.782700 268.225372,92.782700 255.004074,92.782700 
	C255.004074,79.868423 254.867401,67.425285 255.042953,54.986557 
	C255.214386,42.840435 255.775192,30.700214 256.016479,18.554453 
	C256.100677,14.316792 257.318909,12.333402 262.169800,12.644860 
	C270.633453,13.188280 279.152435,13.193421 287.636047,12.967451 
	C291.918915,12.853373 293.214355,14.437318 292.903015,18.442533 
	C292.671661,21.418402 292.935486,24.432760 292.987122,27.914345 
z"/>
<path fill="#895DF9" opacity="1.000000" stroke="none" 
	d="
M349.845947,79.989761 
	C349.975372,57.543732 350.106415,35.596256 350.240143,13.200087 
	C363.070343,13.200087 374.752533,13.200087 386.883881,13.200087 
	C387.210480,20.454523 387.520050,27.331442 387.858185,34.842331 
	C379.764465,34.842331 372.203400,34.842331 364.312317,34.842331 
	C364.312317,39.514687 364.312317,43.580940 364.312317,48.124107 
	C370.035583,48.124107 375.615448,48.124107 381.622528,48.124107 
	C381.622528,51.801064 381.622528,55.023624 381.622528,58.865829 
	C376.572784,58.865829 371.493530,58.865829 366.032990,58.865829 
	C366.032990,64.063934 365.809265,68.683731 366.213867,73.247841 
	C366.299042,74.208954 368.659271,75.637962 370.023773,75.700302 
	C375.954834,75.971268 381.905396,75.816605 388.065948,75.816605 
	C388.065948,82.091331 388.065948,87.213112 388.065948,92.791229 
	C375.480377,92.791229 362.973328,92.791229 349.847595,92.791229 
	C349.847595,88.390602 349.847595,84.439461 349.845947,79.989761 
z"/>
<path fill="#8A5FF9" opacity="1.000000" stroke="none" 
	d="
M443.306641,47.240753 
	C443.570892,42.116592 443.825256,37.466434 444.097961,32.481308 
	C449.662384,32.481308 455.184143,32.481308 460.775635,32.481308 
	C460.949707,33.545086 461.145050,34.183685 461.145599,34.822453 
	C461.161804,53.940128 461.158752,73.057823 461.158752,92.587631 
	C455.420624,92.587631 450.042572,92.587631 443.296783,92.587631 
	C443.296783,77.535362 443.296783,62.625061 443.306641,47.240753 
z"/>
<path fill="#895EF9" opacity="1.000000" stroke="none" 
	d="
M461.267273,25.403635 
	C455.545959,25.759752 450.113983,25.759752 444.474670,25.759752 
	C444.362701,25.551277 444.015015,25.156324 443.931458,24.711720 
	C441.306030,10.746613 445.350708,7.083575 459.316681,11.028058 
	C460.418457,11.339237 461.652496,13.344247 461.747131,14.640737 
	C461.998657,18.086674 461.660370,21.575657 461.267273,25.403635 
z"/>
<path fill="#F8F7FA" opacity="1.000000" stroke="none" 
	d="
M83.034187,33.942558 
	C91.098328,34.070587 91.173492,34.072456 90.980942,41.813869 
	C90.721146,52.258514 90.183693,62.698456 90.079712,73.143547 
	C90.044456,76.684853 88.407951,77.905266 85.366417,78.046318 
	C82.894089,78.160988 80.412209,78.069618 77.475723,78.069618 
	C77.328796,76.296982 77.115417,74.874641 77.108032,73.451241 
	C77.049530,62.167469 77.127625,50.881943 76.947510,39.600410 
	C76.882019,35.498127 77.986069,33.135101 83.034187,33.942558 
z"/>
<path fill="#F7F5FB" opacity="1.000000" stroke="none" 
	d="
M184.526642,44.692581 
	C182.873428,45.130157 181.573746,45.368065 180.269913,45.580399 
	C177.368652,46.052876 176.004013,45.071190 176.092499,41.875374 
	C176.238846,36.588772 175.905319,31.288136 176.080170,26.003544 
	C176.131012,24.467093 177.220688,21.678665 177.840973,21.676760 
	C180.156006,21.669659 183.088058,21.890944 184.662811,23.291967 
	C187.945770,26.212742 187.708832,40.582752 184.526642,44.692581 
z"/>
</svg>