<svg version="1.1" id="Layer_1" xmlns="http://www.w3.org/2000/svg" xmlns:xlink="http://www.w3.org/1999/xlink" x="0px" y="0px"
	 width="100%" viewBox="0 0 356 346" enable-background="new 0 0 356 346" xml:space="preserve">
<path fill="#FFFFFF" opacity="1.000000" stroke="none" 
	d="
M1.000000,121.000000 
	C1.000000,80.680847 1.000000,40.861702 1.000000,1.021276 
	C119.610229,1.021276 238.220459,1.021276 356.915344,1.021276 
	C356.915344,116.235771 356.915344,231.471634 356.915344,346.853760 
	C238.333466,346.853760 119.666756,346.853760 1.000000,346.853760 
	C1.000000,271.779633 1.000000,196.639816 1.000000,121.000000 
M87.500000,27.998770 
	C70.836922,27.998772 54.173840,27.996777 37.510761,27.999573 
	C28.427366,28.001097 26.999722,29.394777 26.999592,38.271725 
	C26.998259,129.419769 26.998058,220.567810 26.999924,311.715851 
	C27.000105,320.543945 28.494864,322.000275 37.537220,322.000366 
	C131.518021,322.001556 225.498810,322.001587 319.479614,322.000336 
	C328.493073,322.000214 329.999817,320.525208 329.999969,311.687225 
	C330.001770,220.539185 330.001678,129.391144 330.000183,38.243099 
	C330.000061,29.397917 328.559448,27.999701 319.452820,27.999540 
	C242.468552,27.998196 165.484268,27.998770 87.500000,27.998770 
z"/>
<path fill="#617CFF" opacity="1.000000" stroke="none" 
	d="
M88.000000,27.998768 
	C165.484268,27.998770 242.468552,27.998196 319.452820,27.999540 
	C328.559448,27.999701 330.000061,29.397917 330.000183,38.243099 
	C330.001678,129.391144 330.001770,220.539185 329.999969,311.687225 
	C329.999817,320.525208 328.493073,322.000214 319.479614,322.000336 
	C225.498810,322.001587 131.518021,322.001556 37.537220,322.000366 
	C28.494864,322.000275 27.000105,320.543945 26.999924,311.715851 
	C26.998058,220.567810 26.998259,129.419769 26.999592,38.271725 
	C26.999722,29.394777 28.427366,28.001097 37.510761,27.999573 
	C54.173840,27.996777 70.836922,27.998772 88.000000,27.998768 
M163.500000,320.003021 
	C215.654861,320.003021 267.809723,320.004425 319.964600,320.001495 
	C327.452057,320.001068 328.000671,319.466492 328.000946,312.112915 
	C328.004150,220.800034 328.003967,129.487167 328.001373,38.174294 
	C328.001129,30.526222 327.461670,29.998148 319.712555,29.998016 
	C225.566986,29.996420 131.421402,29.996414 37.275833,29.998030 
	C29.516108,29.998163 28.998678,30.506498 28.998482,38.175766 
	C28.996157,129.488632 28.995916,220.801514 28.999004,312.114380 
	C28.999254,319.489563 29.523260,320.000854 37.028111,320.001434 
	C78.852074,320.004761 120.676041,320.003021 163.500000,320.003021 
z"/>
<path fill="#FEFDFF" opacity="1.000000" stroke="none" 
	d="
M163.000000,320.003021 
	C120.676041,320.003021 78.852074,320.004761 37.028111,320.001434 
	C29.523260,320.000854 28.999254,319.489563 28.999004,312.114380 
	C28.995916,220.801514 28.996157,129.488632 28.998482,38.175766 
	C28.998678,30.506498 29.516108,29.998163 37.275833,29.998030 
	C131.421402,29.996414 225.566986,29.996420 319.712555,29.998016 
	C327.461670,29.998148 328.001129,30.526222 328.001373,38.174294 
	C328.003967,129.487167 328.004150,220.800034 328.000946,312.112915 
	C328.000671,319.466492 327.452057,320.001068 319.964600,320.001495 
	C267.809723,320.004425 215.654861,320.003021 163.000000,320.003021 
M314.502441,82.026237 
	C315.463043,72.369545 311.860413,64.206665 306.274872,56.660664 
	C301.199280,49.803631 295.765625,44.213078 285.975952,44.810459 
	C279.226318,45.222340 272.358643,44.098747 265.570190,43.403164 
	C243.818832,41.174389 222.128479,40.076736 200.558868,45.139244 
	C194.814545,46.487461 186.807404,54.271862 186.395477,60.068005 
	C185.735062,69.360527 184.813034,78.691437 185.039841,87.980766 
	C186.503540,147.930603 188.241730,207.873749 189.908020,267.818604 
	C190.269501,280.822205 193.100449,292.427856 206.565582,298.432037 
	C209.865265,299.903381 212.671463,302.454315 215.796524,304.357910 
	C217.028061,305.108032 218.477386,305.777374 219.884796,305.920471 
	C240.735138,308.040314 261.540710,310.596405 282.547546,306.997375 
	C293.171600,305.177155 303.983246,304.451660 315.569916,303.133362 
	C316.082428,260.305695 316.591522,217.762573 317.103088,175.013351 
	C312.230743,174.306778 308.596191,173.156494 305.043518,173.369797 
	C287.427490,174.427490 269.837311,175.908905 252.226974,177.074417 
	C249.199966,177.274765 248.261917,178.357849 248.303757,181.328583 
	C248.449249,191.655807 248.316116,201.986603 248.385513,212.315414 
	C248.408600,215.753433 248.722473,219.189499 248.921799,222.975739 
	C263.864532,222.975739 278.287231,222.975739 292.861938,222.975739 
	C292.861938,231.731293 292.861938,240.100266 292.861938,248.770523 
	C277.041748,247.892166 261.591034,247.219711 246.173981,246.088806 
	C239.846100,245.624619 235.184265,241.306778 235.141449,237.032883 
	C234.627655,185.723557 234.152298,134.413788 233.549026,83.105515 
	C233.509644,79.757423 234.603683,78.808990 237.827225,77.977142 
	C245.924194,75.887695 252.756592,79.044632 259.897308,81.785179 
	C262.976227,82.966850 264.241608,84.300415 264.186859,87.786552 
	C264.006317,99.277542 264.087921,110.780190 264.424133,122.267952 
	C264.552948,126.667427 265.640289,131.038834 266.342194,135.769150 
	C283.320740,134.061630 299.632050,132.421234 316.389618,130.735947 
	C315.779236,114.512993 315.185547,98.734573 314.502441,82.026237 
M44.872074,150.349915 
	C42.905937,178.260880 40.926853,206.170959 38.999165,234.084579 
	C38.850967,236.230469 38.751568,238.462738 39.160324,240.550934 
	C42.451473,257.364166 45.835365,274.159637 49.310619,290.935730 
	C49.613068,292.395752 50.494125,294.566284 51.578110,294.907288 
	C64.155121,298.863678 75.574341,306.499054 89.482376,306.319824 
	C98.297821,306.206238 107.188042,306.464508 115.933540,307.497406 
	C133.493500,309.571289 150.035248,307.133728 165.696960,298.708221 
	C168.241165,297.339569 169.321228,296.084229 169.347916,293.119476 
	C169.539917,271.791809 170.087418,250.466522 170.163361,229.139191 
	C170.182388,223.791016 168.895660,218.438187 168.251999,213.422302 
	C158.058105,213.422302 148.784027,213.422302 139.157455,213.422302 
	C138.471298,225.629974 137.765427,237.906250 137.099167,250.184662 
	C136.841461,254.934158 131.748459,259.918945 127.092522,259.657410 
	C117.447319,259.115662 107.801437,258.536804 98.177666,257.716827 
	C96.757896,257.595856 94.455421,256.253693 94.262848,255.173248 
	C92.923386,247.658203 91.015160,240.041336 91.176445,232.497452 
	C91.849144,201.033325 93.003075,169.575348 94.380157,138.132614 
	C94.873245,126.873795 96.494820,115.664398 97.660393,103.832924 
	C111.881378,103.832924 125.941071,103.832924 140.703491,103.832924 
	C140.703491,127.455162 140.703491,151.153564 140.703491,175.458817 
	C151.484055,174.844193 161.536728,174.271057 171.622375,173.696045 
	C171.754669,172.136475 171.893326,171.320694 171.882935,170.506821 
	C171.419083,134.182297 170.830505,97.858627 170.596878,61.532681 
	C170.564835,56.549751 169.079834,54.006489 164.389511,52.531776 
	C158.258530,50.604099 152.386230,46.420925 146.267731,46.139297 
	C122.312263,45.036652 98.303986,45.063416 74.314148,44.767029 
	C72.778969,44.748066 70.874336,45.111504 69.753273,46.037560 
	C63.876640,50.891949 57.838665,55.553612 54.875710,63.118645 
	C53.067905,67.734337 50.094234,71.880623 48.012146,76.406990 
	C46.945763,78.725273 46.201118,81.403900 46.140972,83.939362 
	C45.623470,105.755035 45.295521,127.575211 44.872074,150.349915 
z"/>
<path fill="#8D04FC" opacity="1.000000" stroke="none" 
	d="
M314.547180,82.491196 
	C315.185547,98.734573 315.779236,114.512993 316.389618,130.735947 
	C299.632050,132.421234 283.320740,134.061630 266.342194,135.769150 
	C265.640289,131.038834 264.552948,126.667427 264.424133,122.267952 
	C264.087921,110.780190 264.006317,99.277542 264.186859,87.786552 
	C264.241608,84.300415 262.976227,82.966850 259.897308,81.785179 
	C252.756592,79.044632 245.924194,75.887695 237.827225,77.977142 
	C234.603683,78.808990 233.509644,79.757423 233.549026,83.105515 
	C234.152298,134.413788 234.627655,185.723557 235.141449,237.032883 
	C235.184265,241.306778 239.846100,245.624619 246.173981,246.088806 
	C261.591034,247.219711 277.041748,247.892166 292.861938,248.770523 
	C292.861938,240.100266 292.861938,231.731293 292.861938,222.975739 
	C278.287231,222.975739 263.864532,222.975739 248.921799,222.975739 
	C248.722473,219.189499 248.408600,215.753433 248.385513,212.315414 
	C248.316116,201.986603 248.449249,191.655807 248.303757,181.328583 
	C248.261917,178.357849 249.199966,177.274765 252.226974,177.074417 
	C269.837311,175.908905 287.427490,174.427490 305.043518,173.369797 
	C308.596191,173.156494 312.230743,174.306778 317.103088,175.013351 
	C316.591522,217.762573 316.082428,260.305695 315.569916,303.133362 
	C303.983246,304.451660 293.171600,305.177155 282.547546,306.997375 
	C261.540710,310.596405 240.735138,308.040314 219.884796,305.920471 
	C218.477386,305.777374 217.028061,305.108032 215.796524,304.357910 
	C212.671463,302.454315 209.865265,299.903381 206.565582,298.432037 
	C193.100449,292.427856 190.269501,280.822205 189.908020,267.818604 
	C188.241730,207.873749 186.503540,147.930603 185.039841,87.980766 
	C184.813034,78.691437 185.735062,69.360527 186.395477,60.068005 
	C186.807404,54.271862 194.814545,46.487461 200.558868,45.139244 
	C222.128479,40.076736 243.818832,41.174389 265.570190,43.403164 
	C272.358643,44.098747 279.226318,45.222340 285.975952,44.810459 
	C295.765625,44.213078 301.199280,49.803631 306.274872,56.660664 
	C311.860413,64.206665 315.463043,72.369545 314.547180,82.491196 
z"/>
<path fill="#8D03FC" opacity="1.000000" stroke="none" 
	d="
M44.891533,149.871979 
	C45.295521,127.575211 45.623470,105.755035 46.140972,83.939362 
	C46.201118,81.403900 46.945763,78.725273 48.012146,76.406990 
	C50.094234,71.880623 53.067905,67.734337 54.875710,63.118645 
	C57.838665,55.553612 63.876640,50.891949 69.753273,46.037560 
	C70.874336,45.111504 72.778969,44.748066 74.314148,44.767029 
	C98.303986,45.063416 122.312263,45.036652 146.267731,46.139297 
	C152.386230,46.420925 158.258530,50.604099 164.389511,52.531776 
	C169.079834,54.006489 170.564835,56.549751 170.596878,61.532681 
	C170.830505,97.858627 171.419083,134.182297 171.882935,170.506821 
	C171.893326,171.320694 171.754669,172.136475 171.622375,173.696045 
	C161.536728,174.271057 151.484055,174.844193 140.703491,175.458817 
	C140.703491,151.153564 140.703491,127.455162 140.703491,103.832924 
	C125.941071,103.832924 111.881378,103.832924 97.660393,103.832924 
	C96.494820,115.664398 94.873245,126.873795 94.380157,138.132614 
	C93.003075,169.575348 91.849144,201.033325 91.176445,232.497452 
	C91.015160,240.041336 92.923386,247.658203 94.262848,255.173248 
	C94.455421,256.253693 96.757896,257.595856 98.177666,257.716827 
	C107.801437,258.536804 117.447319,259.115662 127.092522,259.657410 
	C131.748459,259.918945 136.841461,254.934158 137.099167,250.184662 
	C137.765427,237.906250 138.471298,225.629974 139.157455,213.422302 
	C148.784027,213.422302 158.058105,213.422302 168.251999,213.422302 
	C168.895660,218.438187 170.182388,223.791016 170.163361,229.139191 
	C170.087418,250.466522 169.539917,271.791809 169.347916,293.119476 
	C169.321228,296.084229 168.241165,297.339569 165.696960,298.708221 
	C150.035248,307.133728 133.493500,309.571289 115.933540,307.497406 
	C107.188042,306.464508 98.297821,306.206238 89.482376,306.319824 
	C75.574341,306.499054 64.155121,298.863678 51.578110,294.907288 
	C50.494125,294.566284 49.613068,292.395752 49.310619,290.935730 
	C45.835365,274.159637 42.451473,257.364166 39.160324,240.550934 
	C38.751568,238.462738 38.850967,236.230469 38.999165,234.084579 
	C40.926853,206.170959 42.905937,178.260880 44.891533,149.871979 
z"/>
</svg>